Coordinates
version=1
nRows=10
nColumns=22
inDegrees=yes

Units are S.I. units (second, meters, Newtons, ...)
If the header above contains a line with 'inDegrees', this indicates whether rotational values are in degrees (yes) or radians (no).

endheader
time	pelvis_tilt	pelvis_list	pelvis_rotation	pelvis_tx	pelvis_ty	pelvis_tz	hip_flexion_r	hip_adduction_r	hip_rotation_r	knee_angle_r	ankle_angle_r	subtalar_angle_r	hip_flexion_l	hip_adduction_l	hip_rotation_l	knee_angle_l	ankle_angle_l	subtalar_angle_l	lumbar_extension	lumbar_bending	lumbar_rotation
      3.71000000	     -1.10740223	      4.24421325	     17.25227220	     -0.01864924	      1.05180262	     -0.60102015	     26.11982275	     -2.44260945	    -26.67902007	    -21.18192825	      9.60760052	     -8.12689558	     -9.43845639	      2.45562819	     -3.09631969	    -10.33278400	     17.86570080	      1.55397217	     -5.98807043	     -3.05134415	     -9.73298819
      3.72000000	     -1.14257150	      4.01040534	     17.05020882	     -0.01015060	      1.05024597	     -0.60234909	     25.88856923	     -1.94044935	    -27.99932564	    -18.60626738	      9.72205661	     -7.87652588	     -9.63353443	      2.18962198	     -3.35781676	    -10.73616921	     18.19200618	      1.73424622	     -5.85400256	     -2.82417429	     -9.73578401
      3.73000000	     -1.19484262	      3.78476977	     16.85849998	     -0.00153964	      1.04868996	     -0.60359251	     25.66721028	     -1.42216937	    -29.08945110	    -16.18320135	      9.80578354	     -7.65122401	     -9.77889804	      1.92182025	     -3.60145036	    -11.21895091	     18.49836847	      1.96136738	     -5.70159036	     -2.60501475	     -9.75592880
      3.74000000	     -1.23296606	      3.56825678	     16.66774297	      0.00726837	      1.04718668	     -0.60478549	     25.42926537	     -0.90574655	    -29.96321754	    -13.98834600	      9.88770871	     -7.44621221	     -9.93641570	      1.64649334	     -3.80544748	    -11.73353582	     18.74280457	      2.28173111	     -5.55428608	     -2.38138561	     -9.76449447
      3.75000000	     -1.25958484	      3.37655033	     16.49198419	      0.01626718	      1.04573616	     -0.60598137	     25.18949628	     -0.44374886	    -30.63956813	    -12.11189245	      9.96892926	     -7.29844203	    -10.10081826	      1.37911441	     -3.95692087	    -12.29426699	     18.93586759	      2.64980805	     -5.41376445	     -2.16589551	     -9.79726050
      3.76000000	     -1.24575619	      3.21452978	     16.32956775	      0.02550395	      1.04440142	     -0.60722036	     24.93005435	     -0.06369355	    -31.16826854	    -10.64103135	     10.06563368	     -7.21731497	    -10.32106266	      1.12076022	     -4.02334239	    -12.87164112	     19.05078230	      3.10696410	     -5.30846431	     -1.95036107	     -9.84191088
      3.77000000	     -1.19000835	      3.08033145	     16.18369702	      0.03499955	      1.04319446	     -0.60852630	     24.66840952	      0.20948739	    -31.60919959	     -9.65592641	     10.17585318	     -7.23514968	    -10.59764319	      0.87027727	     -4.00482560	    -13.46718426	     19.08524955	      3.62746734	     -5.23371664	     -1.73093019	     -9.91252430
      3.78000000	     -1.11473983	      2.94206091	     16.06938192	      0.04474063	      1.04209112	     -0.60993259	     24.45249831	      0.37477715	    -32.05335953	     -9.21163951	     10.26773999	     -7.35750164	    -10.88719122	      0.60355158	     -3.87870894	    -14.09921070	     19.03233493	      4.09658406	     -5.15491106	     -1.47557534	    -10.01656104
      3.79000000	     -0.93971426	      2.85150679	     15.93835484	      0.05482840	      1.04124077	     -0.61134400	     24.16793128	      0.43517865	    -32.45526908	     -9.26777833	     10.36419314	     -7.63393565	    -11.31687159	      0.35120570	     -3.73229379	    -14.71558944	     18.87178471	      4.83700287	     -5.16918809	     -1.22821673	    -10.14064317
      3.80000000	     -0.74424804	      2.73656874	     15.83780406	      0.06518241	      1.04052380	     -0.61282203	     23.92647648	      0.41130150	    -32.96474590	     -9.81673571	     10.36218492	     -8.01174329	    -11.74872875	      0.06461344	     -3.48140159	    -15.37623022	     18.63174566	      5.52534707	     -5.16909724	     -0.92921109	    -10.29587322
